<?xml version="1.0" standalone="no"?>
<!DOCTYPE svg PUBLIC "-//W3C//DTD SVG 20010904//EN"
 "http://www.w3.org/TR/2001/REC-SVG-20010904/DTD/svg10.dtd">
<svg version="1.0" xmlns="http://www.w3.org/2000/svg"
 width="500.000000pt" height="500.000000pt" viewBox="0 0 500.000000 500.000000"
 preserveAspectRatio="xMidYMid meet">
<metadata>
Created by potrace 1.14, written by Peter Selinger 2001-2017
</metadata>
<g transform="translate(0.000000,500.000000) scale(0.100000,-0.100000)"
fill="#000000" stroke="none">
<path d="M2580 4632 c0 -5 26 -22 58 -38 31 -16 86 -57 122 -92 l65 -63 -80
40 c-156 77 -211 99 -315 125 l-105 27 -90 -26 c-126 -37 -280 -104 -361 -157
-45 -30 -97 -53 -149 -68 -118 -32 -204 -68 -260 -109 -66 -47 -70 -53 -95
-143 -11 -42 -39 -109 -62 -150 -92 -164 -106 -196 -118 -269 -13 -75 -8 -198
10 -228 8 -14 9 -13 10 5 0 24 40 147 46 141 2 -2 -3 -24 -11 -48 -21 -58 -31
-154 -17 -163 7 -4 13 11 18 41 8 56 49 191 65 213 9 12 10 11 4 -5 -33 -98
-65 -332 -65 -474 0 -117 14 -180 48 -216 l27 -30 5 55 5 55 8 -55 c10 -68 56
-168 68 -149 6 10 9 6 9 -12 0 -15 13 -52 30 -83 16 -31 43 -98 60 -149 41
-120 143 -330 189 -387 20 -25 67 -75 106 -112 l70 -67 3 -143 c5 -174 -5
-222 -45 -224 -16 -1 -85 -29 -154 -63 -80 -39 -139 -61 -161 -61 -19 0 -86
-20 -149 -45 -63 -25 -159 -59 -214 -76 -105 -32 -301 -114 -323 -135 -6 -7
-12 -19 -12 -27 0 -29 -15 -27 -27 5 -12 33 -12 33 -7 -13 5 -39 1 -56 -24
-105 -62 -120 -185 -450 -222 -595 -11 -43 -34 -117 -50 -166 -17 -48 -34
-104 -39 -123 -13 -52 -61 -232 -67 -252 -5 -17 104 -18 2183 -18 l2188 0 -6
63 c-4 34 -18 130 -32 212 -14 83 -29 173 -32 200 -14 118 -39 248 -67 355
-17 63 -32 125 -35 137 -3 12 -25 39 -49 58 -24 20 -44 41 -44 47 0 19 -50 78
-66 78 -7 0 -14 4 -14 9 0 5 -15 14 -32 22 -18 7 -69 29 -113 50 -44 21 -93
41 -110 45 -16 4 -59 22 -95 40 -85 43 -238 100 -450 169 -71 22 -198 68 -265
95 -16 7 -55 18 -85 26 -30 8 -75 26 -99 40 -31 17 -47 21 -56 14 -17 -14 -26
104 -28 351 l-1 186 42 70 c23 38 42 77 42 87 0 9 4 15 9 11 11 -6 27 42 37
110 3 28 26 91 49 140 23 50 51 109 60 133 20 46 32 52 15 7 -6 -16 -8 -35 -5
-43 9 -24 28 9 65 113 44 127 66 241 86 463 18 191 16 262 -11 427 -3 17 9 -9
27 -57 18 -49 37 -88 42 -88 11 0 0 101 -19 173 -22 84 -64 171 -137 283 -36
54 -70 109 -76 121 -7 12 -27 26 -44 32 -24 8 -218 41 -240 41 -2 0 -4 26 -5
58 -3 67 -29 134 -69 176 -33 34 -137 102 -219 143 -60 30 -145 50 -145 35z
m-545 -686 c50 -9 117 -21 150 -27 75 -13 304 -13 370 0 28 5 67 13 89 16 l39
6 -59 -48 c-125 -105 -224 -154 -335 -167 -97 -12 -112 -17 -99 -30 16 -16
193 -11 267 8 80 21 175 66 238 111 28 21 37 25 20 10 -44 -39 -103 -79 -163
-110 -29 -15 -51 -30 -48 -32 2 -3 29 2 60 11 73 21 168 94 229 176 48 62 49
64 43 30 -3 -19 -9 -79 -12 -132 -8 -124 8 -187 83 -323 31 -55 62 -112 69
-126 17 -32 38 -230 30 -281 -8 -47 10 -51 28 -7 21 49 28 18 17 -68 -6 -43
-15 -150 -21 -238 -15 -216 -40 -338 -75 -375 -37 -38 -284 -217 -422 -306
-122 -78 -109 -74 -311 -89 -131 -10 -291 73 -462 240 -72 71 -78 79 -142 227
-119 275 -141 357 -132 500 5 70 2 118 -11 181 -10 50 -13 92 -8 100 23 40
109 96 189 122 46 15 84 30 84 34 0 4 -5 12 -12 19 -7 7 -9 12 -6 12 4 0 14
-7 23 -17 13 -12 19 -13 24 -4 6 9 32 -6 89 -49 86 -64 88 -68 106 -190 2 -14
4 -3 5 23 1 58 -21 114 -57 145 -52 44 -137 99 -171 110 -41 14 -44 15 -36 3
3 -6 -8 -8 -28 -4 -59 9 -114 -14 -168 -70 -27 -28 -49 -45 -49 -37 0 8 5 58
10 110 10 89 13 99 57 165 105 155 235 305 318 367 44 32 36 32 190 4z m-496
-286 c-24 -33 -45 -58 -47 -55 -5 5 75 115 84 115 2 0 -14 -27 -37 -60z m1767
-636 c10 -53 -14 -104 -77 -166 -40 -38 -72 -61 -101 -69 -24 -7 -44 -13 -45
-14 -1 0 -9 -91 -18 -202 -10 -125 -17 -338 -18 -560 -2 -323 0 -361 15 -390
10 -17 23 -33 29 -35 16 -5 -8 -84 -40 -129 -86 -122 -305 -337 -387 -379 -27
-14 -55 -31 -64 -39 -61 -58 -204 -72 -330 -32 -235 73 -385 264 -407 517 -5
62 -3 78 15 107 29 49 33 76 34 235 1 78 3 142 6 142 2 0 16 -8 30 -18 73 -50
133 -66 277 -73 159 -7 195 1 293 66 30 19 56 35 58 35 25 0 302 211 360 272
91 100 108 159 126 437 9 140 15 188 24 184 7 -2 15 1 19 7 4 6 13 2 25 -12
22 -28 36 -18 18 12 -10 18 -10 24 0 27 17 7 105 100 116 125 9 19 11 19 23 2
7 -10 15 -32 19 -50z"/>
<path d="M2420 3554 c-190 -29 -196 -32 -207 -99 l-6 -37 27 18 c16 9 38 18
49 20 12 1 47 7 77 13 37 8 105 10 205 6 136 -5 148 -4 131 10 -11 8 -28 15
-37 15 -10 0 -21 4 -24 10 -13 22 -162 52 -215 44z m-156 -59 c-9 -14 -18 -25
-21 -25 -5 0 5 18 20 38 17 22 18 13 1 -13z"/>
<path d="M2355 3370 c-22 -10 -56 -35 -75 -55 -22 -23 -27 -34 -15 -27 11 5
29 20 40 32 36 40 69 50 161 50 105 0 107 6 4 13 -58 4 -84 1 -115 -13z"/>
<path d="M2332 3324 c-47 -33 -104 -94 -86 -94 4 0 29 20 55 45 51 48 69 54
89 30 10 -12 10 -16 -1 -19 -8 -3 -31 -10 -51 -16 -21 -6 -40 -16 -43 -21 -8
-12 18 -12 31 1 6 6 53 15 105 21 52 5 106 14 120 20 15 6 42 7 62 4 41 -8 97
2 97 17 0 6 -14 8 -32 5 -23 -3 -44 2 -68 16 -27 17 -54 22 -130 24 -95 3 -95
3 -148 -33z"/>
<path d="M1698 3216 c-32 -11 -118 -71 -118 -82 0 -2 8 -1 18 3 15 6 15 4 -2
-15 -10 -12 -27 -24 -37 -27 -11 -4 -19 -11 -19 -17 0 -17 54 1 69 23 18 26
95 79 114 79 8 0 22 -9 32 -20 18 -20 17 -20 -11 -20 -16 0 -36 -5 -44 -11
-11 -8 -8 -9 15 -5 130 23 158 26 175 21 23 -7 24 -6 10 30 -19 49 -121 70
-202 41z"/>
<path d="M2450 3198 c-30 -5 -79 -8 -108 -5 -34 2 -49 0 -43 -6 13 -13 191 -4
216 11 24 14 13 14 -65 0z"/>
<path d="M1675 3059 c50 -10 122 -9 155 0 14 4 -24 7 -85 7 -78 0 -98 -2 -70
-7z"/>
<path d="M1878 2876 c-28 -42 -37 -107 -20 -132 12 -19 70 -44 87 -38 10 4 13
9 6 13 -6 4 18 5 54 3 66 -4 115 2 115 16 0 9 -180 9 -200 -1 -25 -12 -40 7
-47 60 -5 45 -2 55 22 87 15 20 23 36 19 36 -5 0 -21 -20 -36 -44z"/>
<path d="M2320 2865 c0 -8 -9 -24 -20 -35 -16 -16 -28 -19 -59 -14 -28 4 -51
0 -86 -15 -60 -27 -53 -36 17 -22 29 6 69 13 89 16 20 3 43 13 51 23 21 23 32
62 19 62 -6 0 -11 -7 -11 -15z"/>
<path d="M2764 2754 c-9 -37 8 -109 26 -109 17 0 37 92 27 119 -10 26 -46 19
-53 -10z"/>
<path d="M2591 2728 c1 -29 17 -51 37 -55 28 -4 28 16 2 45 -23 24 -40 29 -39
10z"/>
<path d="M2535 2636 c-11 -7 -56 -16 -100 -19 -81 -7 -174 -31 -230 -59 -16
-9 -73 -19 -125 -23 -52 -3 -111 -12 -132 -19 -23 -9 -40 -10 -46 -4 -12 12
-52 1 -52 -13 0 -5 10 -14 23 -19 12 -5 40 -28 62 -50 49 -51 73 -64 149 -80
76 -16 113 -8 220 47 97 51 216 154 216 188 0 11 10 25 22 30 22 10 37 35 21
35 -5 0 -17 -6 -28 -14z m-69 -75 c-23 -43 -163 -108 -293 -136 -53 -11 -72
-11 -123 1 -66 15 -110 39 -110 59 0 15 39 24 145 32 46 3 107 16 145 31 75
28 243 63 248 51 2 -4 -4 -21 -12 -38z"/>
<path d="M2195 2610 l-20 -9 20 1 c11 0 31 4 45 8 l25 8 -25 0 c-14 0 -34 -3
-45 -8z"/>
<path d="M1774 2565 c-3 -14 -3 -33 0 -42 6 -15 8 -15 16 -3 13 20 13 70 0 70
-5 0 -12 -11 -16 -25z"/>
<path d="M1620 2565 c0 -15 34 -85 41 -85 5 0 9 -8 9 -18 0 -10 11 -29 25 -42
30 -28 30 -27 8 36 -22 65 -52 114 -69 114 -8 0 -14 -2 -14 -5z"/>
<path d="M2275 2289 c-40 -12 -183 -16 -220 -6 l-30 8 24 -17 c19 -14 39 -16
115 -11 50 3 107 12 126 20 39 17 31 20 -15 6z"/>
</g>
</svg>
